<svg id="Capa_1" enable-background="new 0 0 512 512" height="512" viewBox="0 0 512 512" width="512" xmlns="http://www.w3.org/2000/svg" xmlns:xlink="http://www.w3.org/1999/xlink"><linearGradient id="SVGID_1_" gradientUnits="userSpaceOnUse" x1="19.667" x2="492.334" y1="256" y2="256"><stop offset="0" stop-color="#80d8ff"/><stop offset="1" stop-color="#ea80fc"/></linearGradient><path d="m472.333 0h-393.333c-11.045 0-20 8.954-20 20v58.667h-19.333c-11.046 0-20 8.954-20 20s8.954 20 20 20h19.333v68.667h-19.333c-11.046 0-20 8.954-20 20s8.954 20 20 20h19.333v57.333h-19.333c-11.046 0-20 8.954-20 20s8.954 20 20 20h19.333v68.667h-19.333c-11.046 0-20 8.954-20 20s8.954 20 20 20h19.333v58.666c0 11.046 8.954 20 20 20h393.333c11.046 0 20-8.954 20-20v-472c0-11.046-8.954-20-20-20zm-373.333 433.333h19.333c11.046 0 20-8.954 20-20s-8.954-20-20-20h-19.333v-68.667h19.333c11.046 0 20-8.954 20-20s-8.954-20-20-20h-19.333v-57.333h19.333c11.046 0 20-8.954 20-20s-8.954-20-20-20h-19.333v-68.667h19.333c11.046 0 20-8.954 20-20s-8.954-20-20-20h-19.333v-38.666h78v432h-78zm353.333 38.667h-235.333v-432h235.333zm-179.325-373.333c0-11.046 8.954-20 20-20h78.666c11.046 0 20 8.954 20 20s-8.954 20-20 20h-78.666c-11.046 0-20-8.955-20-20zm118.666 78.666c0 11.046-8.954 20-20 20h-78.666c-11.046 0-20-8.954-20-20s8.954-20 20-20h78.666c11.046 0 20 8.955 20 20z" fill="url(#SVGID_1_)"/></svg>