<?xml version="1.0" encoding="iso-8859-1"?>
<!-- Generator: Adobe Illustrator 19.0.0, SVG Export Plug-In . SVG Version: 6.00 Build 0)  -->

<svg xmlns="http://www.w3.org/2000/svg" version="1.1" xmlns:xlink="http://www.w3.org/1999/xlink" xmlns:svgjs="http://svgjs.com/svgjs" height="67.89999999999999" width="347.9823959350586">
    <defs id="SvgjsDefs6182"></defs>
    <g id="SvgjsG6183" rel="mainfill" name="main_text" xmlns:name="main_text" transform="translate(78.83557360172273,-191.54242401123048)" fill="#80D8FF">

        <linearGradient id="SVGID_1_" gradientUnits="userSpaceOnUse" x1="0" y1="128" x2="260" y2="190" gradientTransform="matrix(1 0 0 -1 0 258)">
        <stop  offset="0" style="stop-color:#80D8FF"/>
        <stop  offset="0.1" style="stop-color:#9FBEFE"/>
        <stop  offset="0.66" style="stop-color:#C4A0FD"/>
        <stop  offset="1" style="stop-color:#e963ff"/>
    </linearGradient>

        <path style="fill:url(#SVGID_1_);"
              d="M2.16 215.28Q2.52 210.60 3.48 208.80Q3.60 208.50 3.78 208.26Q3.48 208.14 2.67 207.96Q1.86 207.78 1.50 207.60Q0.60 206.58 0.93 205.11Q1.26 203.64 2.16 203.28Q9.06 200.52 16.44 202.23Q23.82 203.94 28.74 209.58Q28.92 211.26 28.68 212.79Q28.44 214.32 27.99 215.52Q27.54 216.72 26.49 217.92Q25.44 219.12 24.60 219.93Q23.76 220.74 22.14 221.70Q20.52 222.66 19.59 223.20Q18.66 223.74 16.71 224.52Q14.76 225.30 13.92 225.63Q13.08 225.96 11.04 226.68Q9 227.40 8.46 227.58Q8.28 229.14 8.88 232.23Q9.48 235.32 9.12 236.88Q8.58 238.44 6.96 239.40Q5.34 240.36 3.48 239.88Q3.18 239.70 2.16 238.50Q0.96 229.14 2.16 215.28M8.76 213.90Q8.76 214.62 8.40 216.39Q8.04 218.16 8.13 219.21Q8.22 220.26 9.12 220.56Q12.60 221.76 16.83 219.03Q21.06 216.30 22.08 212.28Q19.56 210.36 17.82 209.28Q16.08 208.20 13.44 207.45Q10.80 206.70 8.46 207.30Q8.34 207.30 8.64 207.57Q8.94 207.84 9.36 208.35Q9.78 208.86 9.78 209.28Q9.78 210.12 9.27 211.62Q8.76 213.12 8.76 213.90ZM34.14 216.24Q34.14 216 34.02 215.16Q33.90 214.32 33.90 213.93Q33.90 213.54 34.02 212.97Q34.14 212.40 34.44 212.10Q35.34 210.72 37.20 210.66Q39.06 210.60 39.78 212.10Q40.62 213.78 40.56 216.93Q40.50 220.08 40.68 222.18Q40.74 222.42 40.86 222.51Q40.98 222.60 41.13 222.54Q41.28 222.48 41.40 222.39Q41.52 222.30 41.67 222.12Q41.82 221.94 41.88 221.88Q42.18 221.22 43.11 219.06Q44.04 216.90 44.55 215.91Q45.06 214.92 46.11 213.57Q47.16 212.22 48.42 211.50Q49.26 211.20 50.40 211.14Q51.54 211.08 52.23 211.86Q52.92 212.64 52.26 213.90Q51.54 215.28 49.86 218.19Q48.18 221.10 47.25 222.87Q46.32 224.64 45.39 227.37Q44.46 230.10 44.28 232.56Q44.04 235.68 42.09 240.09Q40.14 244.50 37.92 247.32Q36.24 249.36 33.18 249.42Q30.12 249.48 28.98 247.32Q26.88 243.12 29.28 241.68Q30.36 241.02 31.62 241.83Q32.88 242.64 33.12 244.02Q34.38 243.06 35.10 242.37Q35.82 241.68 36.27 240.72Q36.72 239.76 36.84 239.28Q36.96 238.80 37.26 237.21Q37.56 235.62 37.74 234.66Q38.10 232.80 36.78 229.83Q35.46 226.86 35.34 225.78Q35.16 224.16 34.74 221.01Q34.32 217.86 34.14 216.24ZM54.48 208.44Q52.98 205.50 54.78 203.88Q56.04 202.74 57.78 202.74Q59.52 202.74 60.42 204.12Q61.32 205.38 61.14 207.09Q60.96 208.80 59.76 209.64Q58.32 210.66 56.82 210.36Q55.32 210.06 54.48 208.44M56.34 214.02Q56.70 212.88 58.77 212.91Q60.84 212.94 61.38 214.50Q61.50 215.22 61.14 216.66Q60.78 218.10 60.90 218.82Q60.96 220.50 61.26 223.83Q61.56 227.16 61.71 229.20Q61.86 231.24 61.71 234.21Q61.56 237.18 60.93 239.25Q60.30 241.32 58.83 243.57Q57.36 245.82 55.14 247.44Q52.98 249.12 49.86 248.25Q46.74 247.38 45.78 244.56Q45.36 243.36 46.05 242.46Q46.74 241.56 47.94 241.20Q48.78 240.96 49.32 241.38Q49.86 241.80 50.31 242.67Q50.76 243.54 51.06 243.84Q52.02 244.32 52.50 244.32Q54.18 243.18 55.14 241.14Q56.10 239.10 56.34 237.66Q56.58 236.22 56.82 233.52Q57.06 231 56.49 227.01Q55.92 223.02 55.65 220.50Q55.38 217.98 56.34 214.02ZM80.22 241.26Q79.74 240.96 79.23 240.03Q78.72 239.10 78.30 239.10Q77.46 238.98 75.75 238.74Q74.04 238.50 73.05 238.29Q72.06 238.08 70.74 237.66Q69.42 237.24 68.46 236.46Q67.50 235.68 66.84 234.54Q65.70 232.80 65.94 230.25Q66.18 227.70 67.38 226.14Q68.76 224.28 70.62 223.17Q72.48 222.06 74.19 221.70Q75.90 221.34 77.40 221.31Q78.90 221.28 79.86 221.40L80.82 221.46Q81.30 220.86 81.30 219.36Q81.30 217.86 80.40 217.68Q79.50 217.26 77.97 217.50Q76.44 217.74 75.81 217.92Q75.18 218.10 73.71 218.73Q72.24 219.36 71.46 219.60Q69.90 220.14 69.18 217.89Q68.46 215.64 69.06 215.04Q71.34 213.48 74.46 212.70Q77.58 211.92 80.67 212.67Q83.76 213.42 85.02 216.06Q85.86 217.80 85.95 219.93Q86.04 222.06 85.65 223.74Q85.26 225.42 84.75 227.79Q84.24 230.16 84.12 231.84Q83.64 239.40 82.38 241.02Q81.48 242.04 80.22 241.26M79.14 234Q79.32 233.16 79.68 231.90Q80.04 230.64 80.25 229.86Q80.46 229.08 80.43 227.97Q80.40 226.86 79.92 225.72Q78.96 226.08 77.01 226.41Q75.06 226.74 73.77 227.01Q72.48 227.28 71.40 228.33Q70.32 229.38 70.26 231.18Q70.26 232.38 72.45 233.34Q74.64 234.30 76.62 234.36Q78.60 234.42 79.14 234ZM88.50 222.24Q88.08 218.76 89.37 216.45Q90.66 214.14 93.90 215.10Q95.10 215.46 95.43 216.45Q95.76 217.44 95.46 218.61Q95.16 219.78 95.13 221.04Q95.10 222.30 95.64 223.14Q96.54 222.30 97.50 220.71Q98.46 219.12 99.09 217.86Q99.72 216.60 100.77 215.34Q101.82 214.08 102.96 213.87Q104.10 213.66 106.08 214.20Q106.98 215.10 107.28 215.34Q107.52 216.30 107.76 218.67Q108 221.04 108.48 222.24Q108.96 221.76 109.77 220.77Q110.58 219.78 111.15 219.12Q111.72 218.46 112.56 217.62Q113.40 216.78 114.18 216.33Q114.96 215.88 115.86 215.49Q116.76 215.10 117.75 215.16Q118.74 215.22 119.82 215.64Q120.48 216.06 120.72 216.78Q120.96 217.50 120.96 218.64Q120.96 219.78 121.02 220.14Q122.76 232.92 119.52 241.32Q119.10 242.82 117.24 243.12Q115.38 243.42 113.82 242.46Q113.64 242.46 113.52 242.13Q113.40 241.80 113.40 241.32Q113.40 240.84 113.52 240.42Q116.28 232.92 114.72 222.54Q114.72 221.70 113.82 222.48Q113.40 222.78 113.22 223.14Q110.22 228.12 107.58 235.32Q106.80 236.88 104.67 237.51Q102.54 238.14 101.34 236.52Q100.44 234.66 101.10 230.46Q101.76 226.26 101.04 224.04Q100.02 225.78 98.13 230.07Q96.24 234.36 94.80 236.52Q93.84 237.84 91.89 237.84Q89.94 237.84 89.40 236.52Q88.44 234.12 88.56 229.59Q88.68 225.06 88.50 222.24ZM140.22 241.26Q139.74 240.96 139.23 240.03Q138.72 239.10 138.30 239.10Q137.46 238.98 135.75 238.74Q134.04 238.50 133.05 238.29Q132.06 238.08 130.74 237.66Q129.42 237.24 128.46 236.46Q127.50 235.68 126.84 234.54Q125.70 232.80 125.94 230.25Q126.18 227.70 127.38 226.14Q128.76 224.28 130.62 223.17Q132.48 222.06 134.19 221.70Q135.90 221.34 137.40 221.31Q138.90 221.28 139.86 221.40L140.82 221.46Q141.30 220.86 141.30 219.36Q141.30 217.86 140.40 217.68Q139.50 217.26 137.97 217.50Q136.44 217.74 135.81 217.92Q135.18 218.10 133.71 218.73Q132.24 219.36 131.46 219.60Q129.90 220.14 129.18 217.89Q128.46 215.64 129.06 215.04Q131.34 213.48 134.46 212.70Q137.58 211.92 140.67 212.67Q143.76 213.42 145.02 216.06Q145.86 217.80 145.95 219.93Q146.04 222.06 145.65 223.74Q145.26 225.42 144.75 227.79Q144.24 230.16 144.12 231.84Q143.64 239.40 142.38 241.02Q141.48 242.04 140.22 241.26M139.14 234Q139.32 233.16 139.68 231.90Q140.04 230.64 140.25 229.86Q140.46 229.08 140.43 227.97Q140.40 226.86 139.92 225.72Q138.96 226.08 137.01 226.41Q135.06 226.74 133.77 227.01Q132.48 227.28 131.40 228.33Q130.32 229.38 130.26 231.18Q130.26 232.38 132.45 233.34Q134.64 234.30 136.62 234.36Q138.60 234.42 139.14 234ZM160.62 213.18Q161.16 213.42 162.81 214.05Q164.46 214.68 165.24 215.04Q166.02 215.40 167.04 216.21Q168.06 217.02 168.54 218.04Q168.90 218.70 168.51 219.72Q168.12 220.74 167.58 221.10Q166.32 221.88 164.16 220.68Q162 219.48 160.17 218.46Q158.34 217.44 155.76 218.70Q154.62 219.48 155.70 221.04Q156.78 222.60 157.98 223.02Q164.22 225.24 167.46 228.24Q168.66 229.68 168.51 231.60Q168.36 233.52 167.28 235.26Q165.72 237.90 162.18 239.43Q158.64 240.96 154.92 240.18Q151.20 239.40 149.52 235.92Q148.92 234.72 149.94 233.55Q150.96 232.38 152.34 232.26Q153.12 232.20 153.87 233.46Q154.62 234.72 155.10 234.96Q157.20 236.16 160.02 235.05Q162.84 233.94 162.84 231.48Q162.84 230.88 161.91 230.07Q160.98 229.26 160.08 228.84Q159.42 228.54 157.14 227.61Q154.86 226.68 153.87 226.20Q152.88 225.72 151.53 224.58Q150.18 223.44 149.52 222Q148.44 219.78 150.42 217.29Q152.40 214.80 155.55 213.57Q158.70 212.34 160.62 213.18ZM184.08 214.74Q183.78 214.32 183.24 213.75Q182.70 213.18 182.40 212.82Q182.10 212.46 181.86 211.98Q181.62 211.50 181.71 211.08Q181.80 210.66 182.16 210.18Q183.66 208.32 185.61 207Q187.56 205.68 189.93 204.90Q192.30 204.12 194.31 203.64Q196.32 203.16 199.20 202.62Q202.08 202.08 203.76 201.66Q204.96 201.36 206.10 201.99Q207.24 202.62 207.66 203.64Q208.14 204.72 207.21 205.65Q206.28 206.58 205.08 206.88Q203.16 207.60 198.42 208.26Q193.68 208.92 191.34 210.18Q189.96 210.96 190.32 211.80Q191.46 213.48 193.38 215.22Q195.30 216.96 197.16 218.16Q199.02 219.36 201.03 220.95Q203.04 222.54 204.24 223.95Q205.44 225.36 206.13 227.43Q206.82 229.50 206.04 231.78Q205.20 234.84 202.65 236.85Q200.10 238.86 196.86 239.55Q193.62 240.24 190.11 239.94Q186.60 239.64 183.78 238.32Q181.44 237.12 182.22 234.66Q183.00 232.20 185.40 231.12Q186.36 230.94 187.11 232.14Q187.86 233.34 188.34 233.46Q188.70 233.52 190.11 233.64Q191.52 233.76 192.30 234.12Q193.26 234.54 194.34 234.51Q195.42 234.48 195.93 234.33Q196.44 234.18 197.88 233.52Q199.32 232.86 199.50 232.80Q201.42 231.30 200.16 228.84Q197.88 225.90 192.15 221.82Q186.42 217.74 184.08 214.74ZM210.96 222.24Q211.14 220.86 210.87 218.58Q210.60 216.30 210.66 214.35Q210.72 212.40 211.50 210.96Q211.86 210 213.12 209.61Q214.38 209.22 215.70 209.76Q216.48 210.24 216.48 212.22Q216.42 212.64 216.24 214.41Q216.06 216.18 216.00 216.81Q215.94 217.44 215.85 218.91Q215.76 220.38 215.82 221.28Q215.88 222.18 216.03 223.41Q216.18 224.64 216.48 225.72Q218.34 222.42 220.89 220.53Q223.44 218.64 226.44 219.96Q227.52 224.52 227.97 226.53Q228.42 228.54 228.84 232.20Q229.26 235.86 228.96 238.74Q228.90 239.82 227.19 240.27Q225.48 240.72 224.70 239.94Q223.32 238.26 223.17 235.68Q223.02 233.10 223.02 230.25Q223.02 227.40 222.00 225.48Q218.28 229.20 215.46 235.20Q215.10 235.80 214.05 236.22Q213.00 236.64 212.22 236.46Q212.10 236.40 211.71 236.31Q211.32 236.22 211.02 236.16Q210.72 236.10 210.48 235.92Q210.24 235.74 210.24 235.50Q210.24 228.96 210.96 222.24ZM237.66 232.14Q234.66 230.34 233.40 226.98Q232.14 223.62 233.16 220.14Q233.70 218.16 235.26 215.97Q236.82 213.78 237.00 213.36Q238.20 211.08 240.63 211.32Q243.06 211.56 244.92 213.60Q246.90 215.88 247.86 219.48Q249.48 225.54 243.72 231.60Q242.76 232.62 240.81 232.74Q238.86 232.86 237.66 232.14M239.58 226.20Q241.62 226.68 242.58 225.30Q243.54 223.92 243.09 221.76Q242.64 219.60 241.08 217.86Q240.42 217.14 238.80 219Q236.58 221.46 236.88 223.74Q237.12 225.66 239.58 226.20ZM250.92 219.36Q250.98 219 250.53 218.19Q250.08 217.38 250.38 216.90Q251.16 216.24 251.22 214.29Q251.28 212.34 252.30 211.68Q253.56 210.78 254.82 210.72Q256.08 210.66 256.98 211.68Q257.46 212.16 257.52 213.36Q257.58 214.56 257.82 214.68Q259.98 214.92 261.78 215.37Q263.58 215.82 265.47 216.66Q267.36 217.50 268.35 219.06Q269.34 220.62 269.10 222.66Q268.86 224.94 267.81 226.47Q266.76 228 265.05 228.81Q263.34 229.62 261.75 230.07Q260.16 230.52 257.97 231Q255.78 231.48 254.58 231.90Q253.86 236.28 254.01 238.53Q254.16 240.78 255.42 245.10Q255.42 245.28 255.66 245.61Q255.90 245.94 256.23 246.39Q256.56 246.84 256.74 247.14Q257.46 248.64 255.54 249Q253.62 249.36 252.30 248.76Q252.00 248.64 251.70 248.43Q251.40 248.22 251.19 248.04Q250.98 247.86 250.80 247.50Q250.62 247.14 250.50 246.93Q250.38 246.72 250.23 246.24Q250.08 245.76 250.02 245.52Q249.96 245.28 249.87 244.74Q249.78 244.20 249.78 243.99Q249.78 243.78 249.69 243.18Q249.60 242.58 249.60 242.46Q249.30 240.18 249.24 237.81Q249.18 235.44 249.39 233.01Q249.60 230.58 249.81 228.60Q250.02 226.62 250.38 223.86Q250.74 221.10 250.92 219.36M257.28 219.66Q256.08 220.86 255.54 223.65Q255.00 226.44 255.96 226.98Q257.82 227.82 260.43 226.44Q263.04 225.06 263.40 222.24Q263.76 220.14 261.36 219.66Q260.28 219.18 259.11 219.12Q257.94 219.06 257.28 219.66Z"/>
</g>

<g id="SvgjsG6184" rel="mainfill" name="symbol" xmlns:name="symbol_mainfill" transform="translate(-2.662958478927605,-1.0499999999999998) scale(0.7)" fill="#80D8FF">
    <title>Artboard 15</title>
    <g fill="#80D8FF">
        <path fill="#80D8FF" style="fill: rgb(128, 216, 255);"
              d="M42.2,51.5l-4.7,34.3c-0.8,6.1,3.5,11.8,9.6,12.6c0.5,0.1,1,0.1,1.5,0.1H85c6.2,0,11.2-5,11.2-11.2c0-0.5,0-1-0.1-1.5   l-4.7-34.3c-0.2-1.2-1.2-2.1-2.4-2.2H44.7C43.4,49.3,42.4,50.2,42.2,51.5z M86.8,54.3l4.4,32.1c0.5,3.4-1.9,6.5-5.3,7   c-0.3,0-0.6,0.1-0.8,0.1H48.7c-3.4,0-6.2-2.8-6.2-6.2c0-0.3,0-0.6,0.1-0.9l4.4-32.1L86.8,54.3z" >
        </path>
        <path  fill="#80D8FF" style="fill: rgb(128, 216, 255);"
              d="M44.6,1.5c-9.3,0-16.9,7.6-16.9,16.9v4.4H14.6c-1.3,0-2.3,0.9-2.5,2.2L3.9,85.8c-0.8,6.1,3.5,11.8,9.6,12.6   c0.5,0.1,1,0.1,1.5,0.1h16.2c1.4,0,2.5-1.1,2.5-2.5s-1.1-2.5-2.5-2.5H15c-3.4,0-6.2-2.8-6.2-6.2c0-0.3,0-0.6,0.1-0.9l8-58.6h55.6   l2,14.7c0.2,1.4,1.5,2.4,2.8,2.2s2.4-1.5,2.2-2.8L77.1,25c-0.2-1.2-1.2-2.2-2.5-2.2H61.5v-4.4C61.5,9.1,54,1.5,44.6,1.5z    M32.7,18.4c0-6.6,5.3-11.9,11.9-11.9c6.6,0,11.9,5.3,11.9,11.9c0,0,0,0,0,0v4.4H32.7V18.4z"/>
        <path fill="#80D8FF" style="fill: rgb(128, 216, 255);"
              d="M66.8,79.5c7.1,0,12.9-5.8,12.9-12.9v-2c0-1.4-1.1-2.5-2.5-2.5s-2.5,1.1-2.5,2.5v2c0.2,4.4-3.3,8-7.6,8.2   c-4.4,0.2-8-3.3-8.2-7.6c0-0.2,0-0.4,0-0.6v-2c0-1.4-1.1-2.5-2.5-2.5s-2.5,1.1-2.5,2.5v2C53.9,73.7,59.7,79.5,66.8,79.5z" />
        <ellipse transform="matrix(0.3353 -0.9421 0.9421 0.3353 -15.2633 56.2456)" cx="32.2" cy="38.9" rx="3.1" ry="3.1"></ellipse>
        <ellipse transform="matrix(0.3353 -0.9421 0.9421 0.3353 1.2336 79.6285)" cx="57.1" cy="38.9" rx="3.1" ry="3.1"></ellipse>
    </g>
        </g>
</svg>


